<svg xmlns="http://www.w3.org/2000/svg" xmlns:xlink="http://www.w3.org/1999/xlink" version="1.1" width="256" height="256" viewBox="0 0 256 256" xml:space="preserve">

<defs>
</defs>
<g style="stroke: none; stroke-width: 0; stroke-dasharray: none; stroke-linecap: butt; stroke-linejoin: miter; stroke-miterlimit: 10; fill: none; fill-rule: nonzero; opacity: 1;" transform="translate(1.4065934065934016 1.4065934065934016) scale(2.81 2.81)" >
	<path d="M 49 86 V 4 c 0 -2.209 -1.791 -4 -4 -4 s -4 1.791 -4 4 v 82 c 0 2.209 1.791 4 4 4 S 49 88.209 49 86 z" style="stroke: none; stroke-width: 1; stroke-dasharray: none; stroke-linecap: butt; stroke-linejoin: miter; stroke-miterlimit: 10; fill: rgb(0,0,0); fill-rule: nonzero; opacity: 1;" transform=" matrix(1 0 0 1 0 0) " stroke-linecap="round" />
	<path d="M 61.993 73.007 c 0 -1.023 -0.391 -2.048 -1.172 -2.828 c -1.562 -1.563 -4.095 -1.563 -5.656 0 L 45 80.343 L 34.836 70.179 c -1.562 -1.563 -4.095 -1.563 -5.657 0 c -1.562 1.561 -1.562 4.094 0 5.656 l 12.993 12.993 C 42.922 89.578 43.939 90 45 90 c 1.061 0 2.078 -0.422 2.828 -1.172 l 12.993 -12.993 C 61.602 75.055 61.993 74.031 61.993 73.007 z" style="stroke: none; stroke-width: 1; stroke-dasharray: none; stroke-linecap: butt; stroke-linejoin: miter; stroke-miterlimit: 10; fill: rgb(0,0,0); fill-rule: nonzero; opacity: 1;" transform=" matrix(1 0 0 1 0 0) " stroke-linecap="round" />
</g>
</svg>